<svg width="1200" height="1200" xmlns="http://www.w3.org/2000/svg">
  <defs>
    <linearGradient id="fireGradient" x1="0%" y1="0%" x2="0%" y2="100%">
      <stop offset="0%" style="stop-color:#fbbf24;stop-opacity:1" />
      <stop offset="50%" style="stop-color:#f97316;stop-opacity:1" />
      <stop offset="100%" style="stop-color:#ef4444;stop-opacity:1" />
    </linearGradient>
    <linearGradient id="bgGradient" x1="0%" y1="0%" x2="0%" y2="100%">
      <stop offset="0%" style="stop-color:#0f172a;stop-opacity:1" />
      <stop offset="100%" style="stop-color:#1e293b;stop-opacity:1" />
    </linearGradient>
  </defs>

  <!-- Background -->
  <rect width="1200" height="1200" fill="url(#bgGradient)"/>

  <!-- Title Section -->
  <text x="600" y="100" font-family="Inter, sans-serif" font-size="48" font-weight="bold" fill="#ffffff" text-anchor="middle">
    🔥 50% OF EVERY TRANSACTION
  </text>
  <text x="600" y="160" font-family="Inter, sans-serif" font-size="48" font-weight="bold" fill="#fbbf24" text-anchor="middle">
    BURNS FOREVER
  </text>

  <!-- Fire Icon -->
  <g transform="translate(500, 220)">
    <ellipse cx="100" cy="100" rx="80" ry="80" fill="url(#fireGradient)" opacity="0.3"/>
    <path d="M 100 40 Q 80 60 80 90 Q 80 120 100 140 Q 120 120 120 90 Q 120 60 100 40 Z"
          fill="url(#fireGradient)" opacity="0.8"/>
    <path d="M 100 60 Q 90 75 90 90 Q 90 105 100 115 Q 110 105 110 90 Q 110 75 100 60 Z"
          fill="#fbbf24"/>
  </g>

  <!-- Transaction Types -->
  <g transform="translate(100, 400)">
    <rect x="0" y="0" width="1000" height="60" fill="#10b981" opacity="0.1" rx="10"/>
    <text x="30" y="40" font-family="Inter, sans-serif" font-size="28" font-weight="600" fill="#10b981">
      Every AI Analysis:
    </text>
    <text x="750" y="40" font-family="Inter, sans-serif" font-size="32" font-weight="bold" fill="#fbbf24">
      50% BURNED ✅
    </text>
  </g>

  <g transform="translate(100, 480)">
    <rect x="0" y="0" width="1000" height="60" fill="#10b981" opacity="0.1" rx="10"/>
    <text x="30" y="40" font-family="Inter, sans-serif" font-size="28" font-weight="600" fill="#10b981">
      Every B2B Service:
    </text>
    <text x="750" y="40" font-family="Inter, sans-serif" font-size="32" font-weight="bold" fill="#fbbf24">
      50% BURNED ✅
    </text>
  </g>

  <g transform="translate(100, 560)">
    <rect x="0" y="0" width="1000" height="60" fill="#10b981" opacity="0.1" rx="10"/>
    <text x="30" y="40" font-family="Inter, sans-serif" font-size="28" font-weight="600" fill="#10b981">
      Every Transaction:
    </text>
    <text x="750" y="40" font-family="Inter, sans-serif" font-size="32" font-weight="bold" fill="#fbbf24">
      50% BURNED ✅
    </text>
  </g>

  <!-- Supply Chart -->
  <text x="600" y="680" font-family="Inter, sans-serif" font-size="32" font-weight="bold" fill="#ffffff" text-anchor="middle">
    Supply Reduction Over Time
  </text>

  <!-- Chart Bars -->
  <g transform="translate(150, 730)">
    <!-- Day 1 -->
    <rect x="0" y="0" width="150" height="200" fill="#10b981" rx="5"/>
    <text x="75" y="220" font-family="Inter, sans-serif" font-size="18" font-weight="600" fill="#ffffff" text-anchor="middle">
      Day 1
    </text>
    <text x="75" y="245" font-family="Inter, sans-serif" font-size="16" fill="#06b6d4" text-anchor="middle">
      1B HYPE
    </text>

    <!-- Month 1 -->
    <rect x="250" y="30" width="150" height="170" fill="#fbbf24" rx="5"/>
    <text x="325" y="220" font-family="Inter, sans-serif" font-size="18" font-weight="600" fill="#ffffff" text-anchor="middle">
      Month 1
    </text>
    <text x="325" y="245" font-family="Inter, sans-serif" font-size="16" fill="#06b6d4" text-anchor="middle">
      850M (-15%)
    </text>

    <!-- Month 6 -->
    <rect x="500" y="180" width="150" height="20" fill="#f97316" rx="5"/>
    <text x="575" y="220" font-family="Inter, sans-serif" font-size="18" font-weight="600" fill="#ffffff" text-anchor="middle">
      Month 6
    </text>
    <text x="575" y="245" font-family="Inter, sans-serif" font-size="16" fill="#06b6d4" text-anchor="middle">
      100M (-90%)
    </text>

    <!-- Month 12 -->
    <rect x="750" y="195" width="150" height="5" fill="#ef4444" rx="5"/>
    <text x="825" y="220" font-family="Inter, sans-serif" font-size="18" font-weight="600" fill="#ffffff" text-anchor="middle">
      Month 12
    </text>
    <text x="825" y="245" font-family="Inter, sans-serif" font-size="16" fill="#ef4444" text-anchor="middle">
      Exhausted
    </text>
  </g>

  <!-- Result -->
  <rect x="250" y="1020" width="700" height="80" fill="#10b981" rx="15"/>
  <text x="600" y="1070" font-family="Inter, sans-serif" font-size="38" font-weight="bold" fill="#ffffff" text-anchor="middle">
    Result: PRICE MUST RISE 🚀
  </text>

  <!-- Footer -->
  <text x="600" y="1140" font-family="Inter, sans-serif" font-size="20" fill="#06b6d4" text-anchor="middle">
    #HypeAI #Deflationary #InevitableGrowth
  </text>

  <!-- Logo -->
  <text x="100" y="1170" font-family="Inter, sans-serif" font-size="24" font-weight="bold" fill="#fbbf24">
    HYPE
  </text>
  <text x="160" y="1170" font-family="Inter, sans-serif" font-size="20" fill="#06b6d4">
    AI
  </text>
</svg>
